<mxfile host="65bd71144e">
    <diagram id="qupTOumAMpj2-oVKTXfa" name="Page-1">
        <mxGraphModel dx="2014" dy="2562" grid="1" gridSize="10" guides="1" tooltips="1" connect="1" arrows="1" fold="1" page="0" pageScale="1" pageWidth="827" pageHeight="1169" background="none" math="0" shadow="0">
            <root>
                <mxCell id="0"/>
                <mxCell id="1" parent="0"/>
                <mxCell id="95" value="Enseignant" style="swimlane;fontStyle=1;childLayout=stackLayout;horizontal=1;startSize=40;horizontalStack=0;resizeParent=1;resizeParentMax=0;resizeLast=0;collapsible=1;marginBottom=0;fillColor=default;swimlaneLine=1;strokeColor=default;sketch=0;shadow=1;rounded=0;spacing=3;" parent="1" vertex="1">
                    <mxGeometry x="30" y="-760" width="140" height="250" as="geometry">
                        <mxRectangle x="509" y="100" width="40" height="30" as="alternateBounds"/>
                    </mxGeometry>
                </mxCell>
                <mxCell id="96" value="Id" style="text;strokeColor=none;fillColor=none;align=left;verticalAlign=middle;spacingLeft=4;spacingRight=4;overflow=hidden;points=[[0,0.5],[1,0.5]];portConstraint=eastwest;rotatable=0;fontStyle=5;spacing=3;" parent="95" vertex="1">
                    <mxGeometry y="40" width="140" height="30" as="geometry"/>
                </mxCell>
                <mxCell id="97" value="Nom" style="text;strokeColor=none;fillColor=none;align=left;verticalAlign=middle;spacingLeft=4;spacingRight=4;overflow=hidden;points=[[0,0.5],[1,0.5]];portConstraint=eastwest;rotatable=0;fontStyle=1;spacing=3;" parent="95" vertex="1">
                    <mxGeometry y="70" width="140" height="30" as="geometry"/>
                </mxCell>
                <mxCell id="98" value="Prenom" style="text;strokeColor=none;fillColor=none;align=left;verticalAlign=bottom;spacingLeft=4;spacingRight=4;overflow=hidden;points=[[0,0.5],[1,0.5]];portConstraint=eastwest;rotatable=0;fontStyle=1;spacing=3;" parent="95" vertex="1">
                    <mxGeometry y="100" width="140" height="30" as="geometry"/>
                </mxCell>
                <mxCell id="99" value="Email" style="text;strokeColor=none;fillColor=none;align=left;verticalAlign=middle;spacingLeft=4;spacingRight=4;overflow=hidden;points=[[0,0.5],[1,0.5]];portConstraint=eastwest;rotatable=0;labelBorderColor=default;fontStyle=1;spacing=3;" parent="95" vertex="1">
                    <mxGeometry y="130" width="140" height="30" as="geometry"/>
                </mxCell>
                <mxCell id="754" value="Telephone" style="text;strokeColor=none;fillColor=none;align=left;verticalAlign=bottom;spacingLeft=4;spacingRight=4;overflow=hidden;points=[[0,0.5],[1,0.5]];portConstraint=eastwest;rotatable=0;fontStyle=1;spacing=3;" vertex="1" parent="95">
                    <mxGeometry y="160" width="140" height="30" as="geometry"/>
                </mxCell>
                <mxCell id="755" value="Mot de passe" style="text;strokeColor=none;fillColor=none;align=left;verticalAlign=bottom;spacingLeft=4;spacingRight=4;overflow=hidden;points=[[0,0.5],[1,0.5]];portConstraint=eastwest;rotatable=0;fontStyle=1;spacing=3;" vertex="1" parent="95">
                    <mxGeometry y="190" width="140" height="30" as="geometry"/>
                </mxCell>
                <mxCell id="756" value="Matricule" style="text;strokeColor=none;fillColor=none;align=left;verticalAlign=middle;spacingLeft=4;spacingRight=4;overflow=hidden;points=[[0,0.5],[1,0.5]];portConstraint=eastwest;rotatable=0;fontStyle=1;spacing=3;" vertex="1" parent="95">
                    <mxGeometry y="220" width="140" height="30" as="geometry"/>
                </mxCell>
                <mxCell id="100" value="Censeur" style="swimlane;fontStyle=1;childLayout=stackLayout;horizontal=1;startSize=40;horizontalStack=0;resizeParent=1;resizeParentMax=0;resizeLast=0;collapsible=1;marginBottom=0;spacing=3;" parent="1" vertex="1">
                    <mxGeometry x="470" y="-480" width="140" height="180" as="geometry"/>
                </mxCell>
                <mxCell id="101" value="matricule" style="text;align=left;verticalAlign=middle;spacingLeft=4;spacingRight=4;overflow=hidden;points=[[0,0.5],[1,0.5]];portConstraint=eastwest;rotatable=0;fontStyle=5;spacing=3;" parent="100" vertex="1">
                    <mxGeometry y="40" width="140" height="30" as="geometry"/>
                </mxCell>
                <mxCell id="102" value="Nom" style="text;strokeColor=none;fillColor=none;align=left;verticalAlign=middle;spacingLeft=4;spacingRight=4;overflow=hidden;points=[[0,0.5],[1,0.5]];portConstraint=eastwest;rotatable=0;fontStyle=1;spacing=3;" parent="100" vertex="1">
                    <mxGeometry y="70" width="140" height="30" as="geometry"/>
                </mxCell>
                <mxCell id="103" value="Email" style="text;strokeColor=none;fillColor=none;align=left;verticalAlign=middle;spacingLeft=4;spacingRight=4;overflow=hidden;points=[[0,0.5],[1,0.5]];portConstraint=eastwest;rotatable=0;fontStyle=1;spacing=3;" parent="100" vertex="1">
                    <mxGeometry y="100" width="140" height="40" as="geometry"/>
                </mxCell>
                <mxCell id="104" value="Niveau" style="text;strokeColor=none;fillColor=none;align=left;verticalAlign=middle;spacingLeft=4;spacingRight=4;overflow=hidden;points=[[0,0.5],[1,0.5]];portConstraint=eastwest;rotatable=0;fontStyle=1;spacing=3;" parent="100" vertex="1">
                    <mxGeometry y="140" width="140" height="40" as="geometry"/>
                </mxCell>
                <mxCell id="110" value="Cahier" style="swimlane;fontStyle=1;childLayout=stackLayout;horizontal=1;startSize=40;horizontalStack=0;resizeParent=1;resizeParentMax=0;resizeLast=0;collapsible=1;marginBottom=0;spacing=3;" parent="1" vertex="1">
                    <mxGeometry x="20" y="-470" width="140" height="160" as="geometry">
                        <mxRectangle x="-10" y="40" width="70" height="40" as="alternateBounds"/>
                    </mxGeometry>
                </mxCell>
                <mxCell id="111" value="Id" style="text;align=left;verticalAlign=middle;spacingLeft=4;spacingRight=4;overflow=hidden;points=[[0,0.5],[1,0.5]];portConstraint=eastwest;rotatable=0;fontStyle=5;spacing=3;" parent="110" vertex="1">
                    <mxGeometry y="40" width="140" height="30" as="geometry"/>
                </mxCell>
                <mxCell id="112" value="Nom" style="text;align=left;verticalAlign=middle;spacingLeft=4;spacingRight=4;overflow=hidden;points=[[0,0.5],[1,0.5]];portConstraint=eastwest;rotatable=0;fontStyle=1;spacing=3;" parent="110" vertex="1">
                    <mxGeometry y="70" width="140" height="30" as="geometry"/>
                </mxCell>
                <mxCell id="113" value="Classe" style="text;align=left;verticalAlign=middle;spacingLeft=4;spacingRight=4;overflow=hidden;points=[[0,0.5],[1,0.5]];portConstraint=eastwest;rotatable=0;fontStyle=1;spacing=3;" parent="110" vertex="1">
                    <mxGeometry y="100" width="140" height="30" as="geometry"/>
                </mxCell>
                <mxCell id="753" value="Emploie_de_temps&#10;     de laclasse" style="text;align=left;verticalAlign=middle;spacingLeft=4;spacingRight=4;overflow=hidden;points=[[0,0.5],[1,0.5]];portConstraint=eastwest;rotatable=0;fontStyle=1;spacing=3;" vertex="1" parent="110">
                    <mxGeometry y="130" width="140" height="30" as="geometry"/>
                </mxCell>
                <mxCell id="114" value="parent ou tuteur" style="swimlane;fontStyle=1;childLayout=stackLayout;horizontal=1;startSize=40;horizontalStack=0;resizeParent=1;resizeParentMax=0;resizeLast=0;collapsible=1;marginBottom=0;spacing=3;" parent="1" vertex="1">
                    <mxGeometry x="20" y="-150" width="141" height="160" as="geometry">
                        <mxRectangle x="-10" y="40" width="70" height="40" as="alternateBounds"/>
                    </mxGeometry>
                </mxCell>
                <mxCell id="115" value="id" style="text;align=left;verticalAlign=middle;spacingLeft=4;spacingRight=4;overflow=hidden;points=[[0,0.5],[1,0.5]];portConstraint=eastwest;rotatable=0;fontStyle=5;spacing=3;" parent="114" vertex="1">
                    <mxGeometry y="40" width="141" height="30" as="geometry"/>
                </mxCell>
                <mxCell id="116" value="Nom" style="text;align=left;verticalAlign=middle;spacingLeft=4;spacingRight=4;overflow=hidden;points=[[0,0.5],[1,0.5]];portConstraint=eastwest;rotatable=0;fontStyle=1;spacing=3;" parent="114" vertex="1">
                    <mxGeometry y="70" width="141" height="30" as="geometry"/>
                </mxCell>
                <mxCell id="117" value="Nom de L'eleve" style="text;align=left;verticalAlign=middle;spacingLeft=4;spacingRight=4;overflow=hidden;points=[[0,0.5],[1,0.5]];portConstraint=eastwest;rotatable=0;fontStyle=1;spacing=3;" parent="114" vertex="1">
                    <mxGeometry y="100" width="141" height="30" as="geometry"/>
                </mxCell>
                <mxCell id="160" value="Email(cle primaire)" style="text;align=left;verticalAlign=middle;spacingLeft=4;spacingRight=4;overflow=hidden;points=[[0,0.5],[1,0.5]];portConstraint=eastwest;rotatable=0;fontStyle=5;spacing=3;" parent="114" vertex="1">
                    <mxGeometry y="130" width="141" height="30" as="geometry"/>
                </mxCell>
                <mxCell id="118" value="Matiere" style="swimlane;fontStyle=1;childLayout=stackLayout;horizontal=1;startSize=40;horizontalStack=0;resizeParent=1;resizeParentMax=0;resizeLast=0;collapsible=1;marginBottom=0;spacing=3;" parent="1" vertex="1">
                    <mxGeometry x="-460" y="-710" width="141" height="160" as="geometry">
                        <mxRectangle x="-10" y="40" width="70" height="40" as="alternateBounds"/>
                    </mxGeometry>
                </mxCell>
                <mxCell id="119" value="Id_matiere" style="text;align=left;verticalAlign=middle;spacingLeft=4;spacingRight=4;overflow=hidden;points=[[0,0.5],[1,0.5]];portConstraint=eastwest;rotatable=0;fontStyle=5;spacing=3;" parent="118" vertex="1">
                    <mxGeometry y="40" width="141" height="30" as="geometry"/>
                </mxCell>
                <mxCell id="120" value="Code_matiere" style="text;align=left;verticalAlign=middle;spacingLeft=4;spacingRight=4;overflow=hidden;points=[[0,0.5],[1,0.5]];portConstraint=eastwest;rotatable=0;fontStyle=1;spacing=3;" parent="118" vertex="1">
                    <mxGeometry y="70" width="141" height="30" as="geometry"/>
                </mxCell>
                <mxCell id="171" value="Id_animateur(Unique et &#10;non vide)" style="text;align=left;verticalAlign=middle;spacingLeft=4;spacingRight=4;overflow=hidden;points=[[0,0.5],[1,0.5]];portConstraint=eastwest;rotatable=0;fontStyle=1;spacing=3;" parent="118" vertex="1">
                    <mxGeometry y="100" width="141" height="30" as="geometry"/>
                </mxCell>
                <mxCell id="172" value="Id_Inspecteur(Unique et &#10;non vide)" style="text;align=left;verticalAlign=middle;spacingLeft=4;spacingRight=4;overflow=hidden;points=[[0,0.5],[1,0.5]];portConstraint=eastwest;rotatable=0;fontStyle=1;spacing=3;" parent="118" vertex="1">
                    <mxGeometry y="130" width="141" height="30" as="geometry"/>
                </mxCell>
                <mxCell id="121" value="Inspecteur" style="swimlane;fontStyle=1;childLayout=stackLayout;horizontal=1;startSize=40;horizontalStack=0;resizeParent=1;resizeParentMax=0;resizeLast=0;collapsible=1;marginBottom=0;spacing=3;" parent="1" vertex="1">
                    <mxGeometry x="-770" y="-710" width="140" height="130" as="geometry"/>
                </mxCell>
                <mxCell id="122" value="Id" style="text;strokeColor=none;fillColor=none;align=left;verticalAlign=middle;spacingLeft=4;spacingRight=4;overflow=hidden;points=[[0,0.5],[1,0.5]];portConstraint=eastwest;rotatable=0;fontStyle=5;spacing=3;" parent="121" vertex="1">
                    <mxGeometry y="40" width="140" height="30" as="geometry"/>
                </mxCell>
                <mxCell id="123" value="Nom" style="text;strokeColor=none;fillColor=none;align=left;verticalAlign=middle;spacingLeft=4;spacingRight=4;overflow=hidden;points=[[0,0.5],[1,0.5]];portConstraint=eastwest;rotatable=0;fontStyle=1;spacing=3;" parent="121" vertex="1">
                    <mxGeometry y="70" width="140" height="30" as="geometry"/>
                </mxCell>
                <mxCell id="124" value="Niveau" style="text;strokeColor=none;fillColor=none;align=left;verticalAlign=middle;spacingLeft=4;spacingRight=4;overflow=hidden;points=[[0,0.5],[1,0.5]];portConstraint=eastwest;rotatable=0;fontStyle=1;spacing=3;" parent="121" vertex="1">
                    <mxGeometry y="100" width="140" height="30" as="geometry"/>
                </mxCell>
                <mxCell id="125" value="Animateur_pedagogique" style="swimlane;fontStyle=1;childLayout=stackLayout;horizontal=1;startSize=40;horizontalStack=0;resizeParent=1;resizeParentMax=0;resizeLast=0;collapsible=1;marginBottom=0;spacing=3;" parent="1" vertex="1">
                    <mxGeometry x="-770" y="-480" width="140" height="130" as="geometry"/>
                </mxCell>
                <mxCell id="126" value="Id" style="text;strokeColor=none;fillColor=none;align=left;verticalAlign=middle;spacingLeft=4;spacingRight=4;overflow=hidden;points=[[0,0.5],[1,0.5]];portConstraint=eastwest;rotatable=0;fontStyle=5;spacing=3;" parent="125" vertex="1">
                    <mxGeometry y="40" width="140" height="30" as="geometry"/>
                </mxCell>
                <mxCell id="127" value="Nom" style="text;strokeColor=none;fillColor=none;align=left;verticalAlign=middle;spacingLeft=4;spacingRight=4;overflow=hidden;points=[[0,0.5],[1,0.5]];portConstraint=eastwest;rotatable=0;fontStyle=1;spacing=3;" parent="125" vertex="1">
                    <mxGeometry y="70" width="140" height="30" as="geometry"/>
                </mxCell>
                <mxCell id="128" value="Niveau" style="text;strokeColor=none;fillColor=none;align=left;verticalAlign=middle;spacingLeft=4;spacingRight=4;overflow=hidden;points=[[0,0.5],[1,0.5]];portConstraint=eastwest;rotatable=0;fontStyle=1;spacing=3;" parent="125" vertex="1">
                    <mxGeometry y="100" width="140" height="30" as="geometry"/>
                </mxCell>
                <mxCell id="129" value="Eleve" style="swimlane;fontStyle=1;childLayout=stackLayout;horizontal=1;startSize=40;horizontalStack=0;resizeParent=1;resizeParentMax=0;resizeLast=0;collapsible=1;marginBottom=0;spacing=3;" parent="1" vertex="1">
                    <mxGeometry x="-291" y="-485" width="171" height="160" as="geometry">
                        <mxRectangle x="-10" y="40" width="70" height="40" as="alternateBounds"/>
                    </mxGeometry>
                </mxCell>
                <mxCell id="130" value="matricule" style="text;align=left;verticalAlign=middle;spacingLeft=4;spacingRight=4;overflow=hidden;points=[[0,0.5],[1,0.5]];portConstraint=eastwest;rotatable=0;fontStyle=5;spacing=3;" parent="129" vertex="1">
                    <mxGeometry y="40" width="171" height="30" as="geometry"/>
                </mxCell>
                <mxCell id="131" value="Niveau" style="text;align=left;verticalAlign=middle;spacingLeft=4;spacingRight=4;overflow=hidden;points=[[0,0.5],[1,0.5]];portConstraint=eastwest;rotatable=0;fontStyle=1;spacing=3;" parent="129" vertex="1">
                    <mxGeometry y="70" width="171" height="30" as="geometry"/>
                </mxCell>
                <mxCell id="132" value="Matiere" style="text;align=left;verticalAlign=middle;spacingLeft=4;spacingRight=4;overflow=hidden;points=[[0,0.5],[1,0.5]];portConstraint=eastwest;rotatable=0;fontStyle=1;spacing=3;" parent="129" vertex="1">
                    <mxGeometry y="100" width="171" height="30" as="geometry"/>
                </mxCell>
                <mxCell id="137" value="Id_cahier(clef etrangere)" style="text;align=left;verticalAlign=middle;spacingLeft=4;spacingRight=4;overflow=hidden;points=[[0,0.5],[1,0.5]];portConstraint=eastwest;rotatable=0;fontStyle=1;spacing=3;" parent="129" vertex="1">
                    <mxGeometry y="130" width="171" height="30" as="geometry"/>
                </mxCell>
                <mxCell id="141" value="Censeur_enseignant" style="swimlane;fontStyle=1;childLayout=stackLayout;horizontal=1;startSize=40;horizontalStack=0;resizeParent=1;resizeParentMax=0;resizeLast=0;collapsible=1;marginBottom=0;spacing=3;" parent="1" vertex="1">
                    <mxGeometry x="290" y="-700" width="140" height="100" as="geometry"/>
                </mxCell>
                <mxCell id="146" value="matricule_censeur" style="text;html=1;align=left;verticalAlign=middle;resizable=0;points=[];autosize=1;strokeColor=none;fillColor=none;fontStyle=1;spacing=3;" parent="141" vertex="1">
                    <mxGeometry y="40" width="140" height="30" as="geometry"/>
                </mxCell>
                <mxCell id="139" value="Id_enseignant" style="text;html=1;align=left;verticalAlign=middle;resizable=0;points=[];autosize=1;strokeColor=none;fillColor=none;fontStyle=1;spacing=3;" parent="141" vertex="1">
                    <mxGeometry y="70" width="140" height="30" as="geometry"/>
                </mxCell>
                <mxCell id="148" style="edgeStyle=orthogonalEdgeStyle;rounded=0;html=1;endArrow=none;endFill=0;fontStyle=1;spacing=3;entryX=0;entryY=0.433;entryDx=0;entryDy=0;entryPerimeter=0;" parent="1" source="96" edge="1" target="139">
                    <mxGeometry relative="1" as="geometry">
                        <mxPoint x="280" y="-630" as="targetPoint"/>
                    </mxGeometry>
                </mxCell>
                <mxCell id="149" style="edgeStyle=none;rounded=0;html=1;exitX=1;exitY=0.5;exitDx=0;exitDy=0;endArrow=none;endFill=0;fontStyle=1;spacing=3;" parent="1" source="101" target="146" edge="1">
                    <mxGeometry relative="1" as="geometry">
                        <Array as="points">
                            <mxPoint x="680" y="-425"/>
                            <mxPoint x="680" y="-650"/>
                        </Array>
                    </mxGeometry>
                </mxCell>
                <mxCell id="150" value="Censeur_enseignant" style="swimlane;fontStyle=1;childLayout=stackLayout;horizontal=1;startSize=40;horizontalStack=0;resizeParent=1;resizeParentMax=0;resizeLast=0;collapsible=1;marginBottom=0;spacing=3;" parent="1" vertex="1">
                    <mxGeometry x="250" y="-450" width="140" height="100" as="geometry"/>
                </mxCell>
                <mxCell id="151" value="matricule_censeur" style="text;html=1;align=left;verticalAlign=middle;resizable=0;points=[];autosize=1;strokeColor=none;fillColor=none;fontStyle=1;spacing=3;" parent="150" vertex="1">
                    <mxGeometry y="40" width="140" height="30" as="geometry"/>
                </mxCell>
                <mxCell id="152" value="id_cahier" style="text;html=1;align=left;verticalAlign=middle;resizable=0;points=[];autosize=1;strokeColor=none;fillColor=none;fontStyle=1;spacing=3;" parent="150" vertex="1">
                    <mxGeometry y="70" width="140" height="30" as="geometry"/>
                </mxCell>
                <mxCell id="153" style="edgeStyle=orthogonalEdgeStyle;rounded=0;html=1;exitX=1;exitY=0.5;exitDx=0;exitDy=0;entryX=0.005;entryY=0.518;entryDx=0;entryDy=0;entryPerimeter=0;endArrow=none;endFill=0;strokeColor=default;jumpStyle=sharp;fontStyle=1;spacing=3;" parent="1" source="111" target="152" edge="1">
                    <mxGeometry relative="1" as="geometry"/>
                </mxCell>
                <mxCell id="154" style="edgeStyle=orthogonalEdgeStyle;rounded=0;jumpStyle=sharp;html=1;exitX=0;exitY=0.5;exitDx=0;exitDy=0;entryX=1.013;entryY=0.518;entryDx=0;entryDy=0;entryPerimeter=0;endArrow=none;endFill=0;strokeColor=default;fontStyle=1;spacing=3;" parent="1" source="101" target="151" edge="1">
                    <mxGeometry relative="1" as="geometry"/>
                </mxCell>
                <mxCell id="156" value="cahier_parent" style="swimlane;fontStyle=1;childLayout=stackLayout;horizontal=1;startSize=40;horizontalStack=0;resizeParent=1;resizeParentMax=0;resizeLast=0;collapsible=1;marginBottom=0;spacing=3;" parent="1" vertex="1">
                    <mxGeometry x="20" y="-280" width="140" height="100" as="geometry"/>
                </mxCell>
                <mxCell id="158" value="id_cahier" style="text;html=1;align=left;verticalAlign=middle;resizable=0;points=[];autosize=1;strokeColor=none;fillColor=none;fontStyle=1;spacing=3;" parent="156" vertex="1">
                    <mxGeometry y="40" width="140" height="30" as="geometry"/>
                </mxCell>
                <mxCell id="159" value="id_cparent" style="text;html=1;align=left;verticalAlign=middle;resizable=0;points=[];autosize=1;strokeColor=none;fillColor=none;fontStyle=1;spacing=3;" parent="156" vertex="1">
                    <mxGeometry y="70" width="140" height="30" as="geometry"/>
                </mxCell>
                <mxCell id="161" style="edgeStyle=elbowEdgeStyle;jumpStyle=sharp;html=1;entryX=0;entryY=0.5;entryDx=0;entryDy=0;entryPerimeter=0;endArrow=none;endFill=0;strokeColor=#33FFFF;rounded=0;strokeWidth=1;jumpSize=1;sketch=0;fontStyle=1;spacing=3;" parent="1" target="159" edge="1">
                    <mxGeometry relative="1" as="geometry">
                        <mxPoint x="20" y="-95" as="sourcePoint"/>
                        <Array as="points">
                            <mxPoint x="-30" y="-150"/>
                        </Array>
                    </mxGeometry>
                </mxCell>
                <mxCell id="162" style="edgeStyle=elbowEdgeStyle;rounded=0;sketch=0;jumpStyle=sharp;jumpSize=1;html=1;endArrow=none;endFill=0;strokeColor=#33FFFF;strokeWidth=1;fillColor=#1ba1e2;fontStyle=1;spacing=3;" parent="1" edge="1">
                    <mxGeometry relative="1" as="geometry">
                        <mxPoint x="80" y="-415" as="sourcePoint"/>
                        <mxPoint x="80" y="-229" as="targetPoint"/>
                        <Array as="points">
                            <mxPoint x="150" y="-280"/>
                        </Array>
                    </mxGeometry>
                </mxCell>
                <mxCell id="163" style="edgeStyle=elbowEdgeStyle;rounded=0;sketch=0;jumpStyle=sharp;jumpSize=1;html=1;entryX=0;entryY=0.5;entryDx=0;entryDy=0;endArrow=none;endFill=0;strokeColor=default;strokeWidth=1;fontStyle=1;spacing=3;" parent="1" target="111" edge="1">
                    <mxGeometry relative="1" as="geometry">
                        <mxPoint x="-160" y="-340" as="sourcePoint"/>
                    </mxGeometry>
                </mxCell>
                <mxCell id="170" style="edgeStyle=elbowEdgeStyle;rounded=0;sketch=0;jumpStyle=sharp;jumpSize=1;html=1;endArrow=none;endFill=0;strokeColor=default;strokeWidth=1;fontStyle=1;spacing=3;" parent="1" source="166" target="96" edge="1">
                    <mxGeometry relative="1" as="geometry"/>
                </mxCell>
                <mxCell id="164" value="Ensegnant_matiere" style="swimlane;fontStyle=1;childLayout=stackLayout;horizontal=1;startSize=40;horizontalStack=0;resizeParent=1;resizeParentMax=0;resizeLast=0;collapsible=1;marginBottom=0;spacing=3;" parent="1" vertex="1">
                    <mxGeometry x="-189.5" y="-710" width="140" height="100" as="geometry"/>
                </mxCell>
                <mxCell id="166" value="Id_enseignant" style="text;html=1;align=left;verticalAlign=middle;resizable=0;points=[];autosize=1;strokeColor=none;fillColor=none;fontStyle=1;spacing=3;" parent="164" vertex="1">
                    <mxGeometry y="40" width="140" height="30" as="geometry"/>
                </mxCell>
                <mxCell id="167" value="Id_matiere" style="text;html=1;align=left;verticalAlign=middle;resizable=0;points=[];autosize=1;strokeColor=none;fillColor=none;fontStyle=1;spacing=3;" parent="164" vertex="1">
                    <mxGeometry y="70" width="140" height="30" as="geometry"/>
                </mxCell>
                <mxCell id="168" style="edgeStyle=elbowEdgeStyle;rounded=0;sketch=0;jumpStyle=sharp;jumpSize=1;html=1;entryX=-0.032;entryY=0.635;entryDx=0;entryDy=0;entryPerimeter=0;endArrow=none;endFill=0;strokeColor=default;strokeWidth=1;fontStyle=1;spacing=3;" parent="1" target="167" edge="1">
                    <mxGeometry relative="1" as="geometry">
                        <mxPoint x="-390" y="-655" as="sourcePoint"/>
                    </mxGeometry>
                </mxCell>
                <mxCell id="173" style="edgeStyle=elbowEdgeStyle;rounded=0;sketch=0;jumpStyle=sharp;jumpSize=1;html=1;entryX=0;entryY=0.5;entryDx=0;entryDy=0;endArrow=none;endFill=0;strokeColor=default;strokeWidth=2;fontStyle=1;spacing=3;" parent="1" target="172" edge="1">
                    <mxGeometry relative="1" as="geometry">
                        <mxPoint x="-710" y="-655" as="sourcePoint"/>
                    </mxGeometry>
                </mxCell>
                <mxCell id="174" style="edgeStyle=elbowEdgeStyle;rounded=0;sketch=0;jumpStyle=sharp;jumpSize=1;html=1;endArrow=none;endFill=0;strokeColor=#66FFFF;strokeWidth=1;fillColor=#e3c800;entryX=0;entryY=0.5;entryDx=0;entryDy=0;fontStyle=1;spacing=3;" parent="1" target="171" edge="1">
                    <mxGeometry relative="1" as="geometry">
                        <mxPoint x="-750" y="-425" as="sourcePoint"/>
                        <mxPoint x="-530" y="-640" as="targetPoint"/>
                        <Array as="points">
                            <mxPoint x="-510" y="-530"/>
                        </Array>
                    </mxGeometry>
                </mxCell>
                <mxCell id="181" value="Cahier_Matiere" style="swimlane;fontStyle=1;childLayout=stackLayout;horizontal=1;startSize=40;horizontalStack=0;resizeParent=1;resizeParentMax=0;resizeLast=0;collapsible=1;marginBottom=0;spacing=3;" parent="1" vertex="1">
                    <mxGeometry x="-199" y="-600" width="140" height="100" as="geometry"/>
                </mxCell>
                <mxCell id="183" value="Id_matiere" style="text;html=1;align=left;verticalAlign=middle;resizable=0;points=[];autosize=1;strokeColor=none;fillColor=none;fontStyle=1;spacing=3;" parent="181" vertex="1">
                    <mxGeometry y="40" width="140" height="30" as="geometry"/>
                </mxCell>
                <mxCell id="185" value="Id_cahier" style="text;html=1;align=left;verticalAlign=middle;resizable=0;points=[];autosize=1;strokeColor=none;fillColor=none;fontStyle=1;spacing=3;" parent="181" vertex="1">
                    <mxGeometry y="70" width="140" height="30" as="geometry"/>
                </mxCell>
                <mxCell id="184" style="edgeStyle=elbowEdgeStyle;rounded=0;sketch=0;jumpStyle=sharp;jumpSize=1;html=1;endArrow=none;endFill=0;strokeColor=#B3FF66;strokeWidth=2;fillColor=#60a917;fontStyle=1;spacing=3;" parent="1" target="183" edge="1">
                    <mxGeometry relative="1" as="geometry">
                        <mxPoint x="-390" y="-655" as="sourcePoint"/>
                        <Array as="points">
                            <mxPoint x="-310" y="-590"/>
                            <mxPoint x="-470" y="-530"/>
                            <mxPoint x="-440" y="-500"/>
                            <mxPoint x="-310" y="-600"/>
                            <mxPoint x="-340" y="-650"/>
                            <mxPoint x="-310" y="-620"/>
                            <mxPoint x="-230" y="-550"/>
                            <mxPoint x="-480" y="-560"/>
                        </Array>
                    </mxGeometry>
                </mxCell>
                <mxCell id="187" style="edgeStyle=elbowEdgeStyle;rounded=0;sketch=0;jumpStyle=sharp;jumpSize=1;html=1;exitX=0;exitY=0.5;exitDx=0;exitDy=0;entryX=0.493;entryY=0.5;entryDx=0;entryDy=0;entryPerimeter=0;endArrow=none;endFill=0;strokeColor=#B3FF66;strokeWidth=1;fillColor=#0050ef;fontStyle=1;spacing=3;" parent="1" source="111" target="185" edge="1">
                    <mxGeometry relative="1" as="geometry"/>
                </mxCell>
                <mxCell id="679" value="Enseignant" style="swimlane;fontStyle=1;childLayout=stackLayout;horizontal=1;startSize=40;horizontalStack=0;resizeParent=1;resizeParentMax=0;resizeLast=0;collapsible=1;marginBottom=0;spacing=3;" parent="1" vertex="1">
                    <mxGeometry x="420" y="-1640" width="140" height="160" as="geometry">
                        <mxRectangle x="509" y="100" width="40" height="30" as="alternateBounds"/>
                    </mxGeometry>
                </mxCell>
                <mxCell id="680" value="Id" style="text;strokeColor=none;fillColor=none;align=left;verticalAlign=middle;spacingLeft=4;spacingRight=4;overflow=hidden;points=[[0,0.5],[1,0.5]];portConstraint=eastwest;rotatable=0;fontStyle=5;spacing=3;" parent="679" vertex="1">
                    <mxGeometry y="40" width="140" height="30" as="geometry"/>
                </mxCell>
                <mxCell id="681" value="Emploi de temps" style="text;strokeColor=none;fillColor=none;align=left;verticalAlign=middle;spacingLeft=4;spacingRight=4;overflow=hidden;points=[[0,0.5],[1,0.5]];portConstraint=eastwest;rotatable=0;fontStyle=1;spacing=3;" parent="679" vertex="1">
                    <mxGeometry y="70" width="140" height="30" as="geometry"/>
                </mxCell>
                <mxCell id="682" value="Nom" style="text;strokeColor=none;fillColor=none;align=left;verticalAlign=middle;spacingLeft=4;spacingRight=4;overflow=hidden;points=[[0,0.5],[1,0.5]];portConstraint=eastwest;rotatable=0;fontStyle=1;spacing=3;" parent="679" vertex="1">
                    <mxGeometry y="100" width="140" height="30" as="geometry"/>
                </mxCell>
                <mxCell id="683" value="Niveau" style="text;strokeColor=none;fillColor=none;align=left;verticalAlign=middle;spacingLeft=4;spacingRight=4;overflow=hidden;points=[[0,0.5],[1,0.5]];portConstraint=eastwest;rotatable=0;fontStyle=1;spacing=3;" parent="679" vertex="1">
                    <mxGeometry y="130" width="140" height="30" as="geometry"/>
                </mxCell>
                <mxCell id="684" value="Eleve" style="swimlane;fontStyle=1;childLayout=stackLayout;horizontal=1;startSize=40;horizontalStack=0;resizeParent=1;resizeParentMax=0;resizeLast=0;collapsible=1;marginBottom=0;spacing=3;" parent="1" vertex="1">
                    <mxGeometry x="30" y="-1360" width="171" height="130" as="geometry">
                        <mxRectangle x="-10" y="40" width="70" height="40" as="alternateBounds"/>
                    </mxGeometry>
                </mxCell>
                <mxCell id="685" value="matricule" style="text;align=left;verticalAlign=middle;spacingLeft=4;spacingRight=4;overflow=hidden;points=[[0,0.5],[1,0.5]];portConstraint=eastwest;rotatable=0;fontStyle=5;spacing=3;" parent="684" vertex="1">
                    <mxGeometry y="40" width="171" height="30" as="geometry"/>
                </mxCell>
                <mxCell id="686" value="Niveau" style="text;align=left;verticalAlign=middle;spacingLeft=4;spacingRight=4;overflow=hidden;points=[[0,0.5],[1,0.5]];portConstraint=eastwest;rotatable=0;fontStyle=1;spacing=3;" parent="684" vertex="1">
                    <mxGeometry y="70" width="171" height="30" as="geometry"/>
                </mxCell>
                <mxCell id="687" value="Matiere" style="text;align=left;verticalAlign=middle;spacingLeft=4;spacingRight=4;overflow=hidden;points=[[0,0.5],[1,0.5]];portConstraint=eastwest;rotatable=0;fontStyle=1;spacing=3;" parent="684" vertex="1">
                    <mxGeometry y="100" width="171" height="30" as="geometry"/>
                </mxCell>
                <mxCell id="688" value="Cahier" style="swimlane;fontStyle=1;childLayout=stackLayout;horizontal=1;startSize=40;horizontalStack=0;resizeParent=1;resizeParentMax=0;resizeLast=0;collapsible=1;marginBottom=0;spacing=3;" parent="1" vertex="1">
                    <mxGeometry x="420.5" y="-1360" width="140" height="130" as="geometry">
                        <mxRectangle x="-10" y="40" width="70" height="40" as="alternateBounds"/>
                    </mxGeometry>
                </mxCell>
                <mxCell id="689" value="Id_cahier" style="text;align=left;verticalAlign=middle;spacingLeft=4;spacingRight=4;overflow=hidden;points=[[0,0.5],[1,0.5]];portConstraint=eastwest;rotatable=0;fontStyle=5;spacing=3;" parent="688" vertex="1">
                    <mxGeometry y="40" width="140" height="30" as="geometry"/>
                </mxCell>
                <mxCell id="690" value="Nom" style="text;align=left;verticalAlign=middle;spacingLeft=4;spacingRight=4;overflow=hidden;points=[[0,0.5],[1,0.5]];portConstraint=eastwest;rotatable=0;fontStyle=1;spacing=3;" parent="688" vertex="1">
                    <mxGeometry y="70" width="140" height="30" as="geometry"/>
                </mxCell>
                <mxCell id="691" value="Classe" style="text;align=left;verticalAlign=middle;spacingLeft=4;spacingRight=4;overflow=hidden;points=[[0,0.5],[1,0.5]];portConstraint=eastwest;rotatable=0;fontStyle=1;spacing=3;" parent="688" vertex="1">
                    <mxGeometry y="100" width="140" height="30" as="geometry"/>
                </mxCell>
                <mxCell id="692" value="Censeur" style="swimlane;fontStyle=1;childLayout=stackLayout;horizontal=1;startSize=40;horizontalStack=0;resizeParent=1;resizeParentMax=0;resizeLast=0;collapsible=1;marginBottom=0;spacing=3;" parent="1" vertex="1">
                    <mxGeometry x="820" y="-1370" width="140" height="180" as="geometry"/>
                </mxCell>
                <mxCell id="693" value="matricule" style="text;align=left;verticalAlign=middle;spacingLeft=4;spacingRight=4;overflow=hidden;points=[[0,0.5],[1,0.5]];portConstraint=eastwest;rotatable=0;fontStyle=5;spacing=3;" parent="692" vertex="1">
                    <mxGeometry y="40" width="140" height="30" as="geometry"/>
                </mxCell>
                <mxCell id="694" value="Nom" style="text;strokeColor=none;fillColor=none;align=left;verticalAlign=middle;spacingLeft=4;spacingRight=4;overflow=hidden;points=[[0,0.5],[1,0.5]];portConstraint=eastwest;rotatable=0;fontStyle=1;spacing=3;" parent="692" vertex="1">
                    <mxGeometry y="70" width="140" height="30" as="geometry"/>
                </mxCell>
                <mxCell id="695" value="Email" style="text;strokeColor=none;fillColor=none;align=left;verticalAlign=middle;spacingLeft=4;spacingRight=4;overflow=hidden;points=[[0,0.5],[1,0.5]];portConstraint=eastwest;rotatable=0;fontStyle=1;spacing=3;" parent="692" vertex="1">
                    <mxGeometry y="100" width="140" height="40" as="geometry"/>
                </mxCell>
                <mxCell id="696" value="Niveau" style="text;strokeColor=none;fillColor=none;align=left;verticalAlign=middle;spacingLeft=4;spacingRight=4;overflow=hidden;points=[[0,0.5],[1,0.5]];portConstraint=eastwest;rotatable=0;fontStyle=1;spacing=3;" parent="692" vertex="1">
                    <mxGeometry y="140" width="140" height="40" as="geometry"/>
                </mxCell>
                <mxCell id="697" style="html=1;entryX=-0.014;entryY=0.167;entryDx=0;entryDy=0;endArrow=none;endFill=0;exitX=1;exitY=0.5;exitDx=0;exitDy=0;entryPerimeter=0;fontStyle=1;spacing=3;" parent="1" source="701" target="694" edge="1">
                    <mxGeometry relative="1" as="geometry">
                        <mxPoint x="790" y="-1300" as="sourcePoint"/>
                    </mxGeometry>
                </mxCell>
                <mxCell id="698" value="1,n" style="edgeLabel;html=1;align=center;verticalAlign=middle;resizable=0;points=[];fontStyle=1;spacing=3;" parent="697" vertex="1" connectable="0">
                    <mxGeometry x="0.2721" relative="1" as="geometry">
                        <mxPoint as="offset"/>
                    </mxGeometry>
                </mxCell>
                <mxCell id="699" style="edgeStyle=none;html=1;endArrow=none;endFill=0;exitX=0;exitY=0.5;exitDx=0;exitDy=0;entryX=1.011;entryY=0.8;entryDx=0;entryDy=0;entryPerimeter=0;fontStyle=1;spacing=3;" parent="1" source="701" target="689" edge="1">
                    <mxGeometry relative="1" as="geometry">
                        <mxPoint x="519.2002379064236" y="-1370" as="sourcePoint"/>
                    </mxGeometry>
                </mxCell>
                <mxCell id="700" value="1,n" style="edgeLabel;html=1;align=center;verticalAlign=middle;resizable=0;points=[];fontStyle=1;spacing=3;" parent="699" vertex="1" connectable="0">
                    <mxGeometry x="0.3245" relative="1" as="geometry">
                        <mxPoint as="offset"/>
                    </mxGeometry>
                </mxCell>
                <mxCell id="701" value="Controle" style="swimlane;rounded=1;fontStyle=1;spacing=3;" parent="1" vertex="1">
                    <mxGeometry x="620" y="-1330" width="121" height="70" as="geometry"/>
                </mxCell>
                <mxCell id="702" style="edgeStyle=none;html=1;exitX=1;exitY=0.5;exitDx=0;exitDy=0;entryX=0.6;entryY=0.015;entryDx=0;entryDy=0;entryPerimeter=0;endArrow=none;endFill=0;rounded=0;fontStyle=1;spacing=3;" parent="1" source="704" target="692" edge="1">
                    <mxGeometry relative="1" as="geometry">
                        <Array as="points">
                            <mxPoint x="904" y="-1555"/>
                        </Array>
                    </mxGeometry>
                </mxCell>
                <mxCell id="703" value="1,n" style="edgeLabel;html=1;align=center;verticalAlign=middle;resizable=0;points=[];fontStyle=1;spacing=3;" parent="702" vertex="1" connectable="0">
                    <mxGeometry x="0.1335" relative="1" as="geometry">
                        <mxPoint as="offset"/>
                    </mxGeometry>
                </mxCell>
                <mxCell id="704" value="Manage" style="swimlane;rounded=1;fontStyle=1;spacing=3;" parent="1" vertex="1">
                    <mxGeometry x="670" y="-1590" width="121" height="70" as="geometry"/>
                </mxCell>
                <mxCell id="705" style="edgeStyle=none;html=1;exitX=0.5;exitY=1;exitDx=0;exitDy=0;entryX=0.5;entryY=0;entryDx=0;entryDy=0;endArrow=none;endFill=0;fontStyle=1;spacing=3;" parent="1" source="709" target="722" edge="1">
                    <mxGeometry relative="1" as="geometry">
                        <mxPoint x="489.9469999999999" y="-1072.99" as="targetPoint"/>
                    </mxGeometry>
                </mxCell>
                <mxCell id="706" value="1,n" style="edgeLabel;html=1;align=center;verticalAlign=middle;resizable=0;points=[];fontStyle=1;spacing=3;" parent="705" vertex="1" connectable="0">
                    <mxGeometry x="-0.3996" y="1" relative="1" as="geometry">
                        <mxPoint as="offset"/>
                    </mxGeometry>
                </mxCell>
                <mxCell id="707" style="edgeStyle=none;html=1;exitX=0.5;exitY=0;exitDx=0;exitDy=0;entryX=0.5;entryY=1.133;entryDx=0;entryDy=0;entryPerimeter=0;endArrow=none;endFill=0;fontStyle=1;spacing=3;" parent="1" source="709" target="691" edge="1">
                    <mxGeometry relative="1" as="geometry"/>
                </mxCell>
                <mxCell id="708" value="1,n" style="edgeLabel;html=1;align=center;verticalAlign=middle;resizable=0;points=[];fontStyle=1;spacing=3;" parent="707" vertex="1" connectable="0">
                    <mxGeometry x="-0.357" y="-1" relative="1" as="geometry">
                        <mxPoint as="offset"/>
                    </mxGeometry>
                </mxCell>
                <mxCell id="709" value="consulte cahier" style="swimlane;rounded=1;fontStyle=1;spacing=3;" parent="1" vertex="1">
                    <mxGeometry x="429.5" y="-1170" width="121" height="70" as="geometry"/>
                </mxCell>
                <mxCell id="710" style="edgeStyle=none;html=1;exitX=0.5;exitY=0;exitDx=0;exitDy=0;entryX=0.5;entryY=1.1;entryDx=0;entryDy=0;entryPerimeter=0;endArrow=none;endFill=0;fontStyle=1;spacing=3;" parent="1" source="714" target="683" edge="1">
                    <mxGeometry relative="1" as="geometry">
                        <Array as="points"/>
                    </mxGeometry>
                </mxCell>
                <mxCell id="711" value="1,n" style="edgeLabel;html=1;align=center;verticalAlign=middle;resizable=0;points=[];fontStyle=1;spacing=3;" parent="710" vertex="1" connectable="0">
                    <mxGeometry x="0.2829" y="-1" relative="1" as="geometry">
                        <mxPoint as="offset"/>
                    </mxGeometry>
                </mxCell>
                <mxCell id="712" style="edgeStyle=none;html=1;exitX=0.5;exitY=1;exitDx=0;exitDy=0;entryX=0.5;entryY=0;entryDx=0;entryDy=0;endArrow=none;endFill=0;fontStyle=1;spacing=3;" parent="1" source="714" target="688" edge="1">
                    <mxGeometry relative="1" as="geometry">
                        <Array as="points"/>
                    </mxGeometry>
                </mxCell>
                <mxCell id="713" value="1,n" style="edgeLabel;html=1;align=center;verticalAlign=middle;resizable=0;points=[];fontStyle=1;spacing=3;" parent="712" vertex="1" connectable="0">
                    <mxGeometry x="0.237" y="-1" relative="1" as="geometry">
                        <mxPoint as="offset"/>
                    </mxGeometry>
                </mxCell>
                <mxCell id="714" value="Remplis" style="swimlane;rounded=1;fontStyle=1;spacing=3;" parent="1" vertex="1">
                    <mxGeometry x="430" y="-1450" width="121" height="70" as="geometry"/>
                </mxCell>
                <mxCell id="715" style="edgeStyle=none;rounded=0;html=1;exitX=1;exitY=0.5;exitDx=0;exitDy=0;entryX=0;entryY=0.5;entryDx=0;entryDy=0;endArrow=none;endFill=0;fontStyle=1;spacing=3;" parent="1" source="681" target="704" edge="1">
                    <mxGeometry relative="1" as="geometry"/>
                </mxCell>
                <mxCell id="716" value="1,n" style="edgeLabel;html=1;align=center;verticalAlign=middle;resizable=0;points=[];fontStyle=1;spacing=3;" parent="715" vertex="1" connectable="0">
                    <mxGeometry x="-0.3091" relative="1" as="geometry">
                        <mxPoint as="offset"/>
                    </mxGeometry>
                </mxCell>
                <mxCell id="717" style="edgeStyle=none;rounded=0;html=1;exitX=0;exitY=0.5;exitDx=0;exitDy=0;entryX=1.018;entryY=0.033;entryDx=0;entryDy=0;entryPerimeter=0;endArrow=none;endFill=0;fontStyle=1;spacing=3;" parent="1" source="721" target="686" edge="1">
                    <mxGeometry relative="1" as="geometry"/>
                </mxCell>
                <mxCell id="718" value="1,1" style="edgeLabel;html=1;align=center;verticalAlign=middle;resizable=0;points=[];fontStyle=1;spacing=3;" parent="717" vertex="1" connectable="0">
                    <mxGeometry x="0.481" relative="1" as="geometry">
                        <mxPoint as="offset"/>
                    </mxGeometry>
                </mxCell>
                <mxCell id="719" style="edgeStyle=none;rounded=0;html=1;exitX=1;exitY=0.5;exitDx=0;exitDy=0;entryX=0.007;entryY=0;entryDx=0;entryDy=0;entryPerimeter=0;endArrow=none;endFill=0;fontStyle=1;spacing=3;" parent="1" source="721" target="690" edge="1">
                    <mxGeometry relative="1" as="geometry"/>
                </mxCell>
                <mxCell id="720" value="1,n" style="edgeLabel;html=1;align=center;verticalAlign=middle;resizable=0;points=[];fontStyle=1;spacing=3;" parent="719" vertex="1" connectable="0">
                    <mxGeometry x="-0.4849" y="-1" relative="1" as="geometry">
                        <mxPoint as="offset"/>
                    </mxGeometry>
                </mxCell>
                <mxCell id="721" value="Apartient" style="swimlane;rounded=1;fontStyle=1;spacing=3;" parent="1" vertex="1">
                    <mxGeometry x="250" y="-1320" width="121" height="60" as="geometry"/>
                </mxCell>
                <mxCell id="722" value="parent ou tuteur" style="swimlane;fontStyle=1;childLayout=stackLayout;horizontal=1;startSize=40;horizontalStack=0;resizeParent=1;resizeParentMax=0;resizeLast=0;collapsible=1;marginBottom=0;spacing=3;" parent="1" vertex="1">
                    <mxGeometry x="420.5" y="-1070" width="141" height="130" as="geometry">
                        <mxRectangle x="-10" y="40" width="70" height="40" as="alternateBounds"/>
                    </mxGeometry>
                </mxCell>
                <mxCell id="723" value="Email(cle primaire)" style="text;align=left;verticalAlign=middle;spacingLeft=4;spacingRight=4;overflow=hidden;points=[[0,0.5],[1,0.5]];portConstraint=eastwest;rotatable=0;fontStyle=5;spacing=3;" parent="722" vertex="1">
                    <mxGeometry y="40" width="141" height="30" as="geometry"/>
                </mxCell>
                <mxCell id="724" value="Nom" style="text;align=left;verticalAlign=middle;spacingLeft=4;spacingRight=4;overflow=hidden;points=[[0,0.5],[1,0.5]];portConstraint=eastwest;rotatable=0;fontStyle=1;spacing=3;" parent="722" vertex="1">
                    <mxGeometry y="70" width="141" height="30" as="geometry"/>
                </mxCell>
                <mxCell id="725" value="Nom de L'eleve" style="text;align=left;verticalAlign=middle;spacingLeft=4;spacingRight=4;overflow=hidden;points=[[0,0.5],[1,0.5]];portConstraint=eastwest;rotatable=0;fontStyle=1;spacing=3;" parent="722" vertex="1">
                    <mxGeometry y="100" width="141" height="30" as="geometry"/>
                </mxCell>
                <mxCell id="726" value="Matiere" style="swimlane;fontStyle=1;childLayout=stackLayout;horizontal=1;startSize=40;horizontalStack=0;resizeParent=1;resizeParentMax=0;resizeLast=0;collapsible=1;marginBottom=0;spacing=3;" parent="1" vertex="1">
                    <mxGeometry x="30" y="-1640" width="141" height="100" as="geometry">
                        <mxRectangle x="-10" y="40" width="70" height="40" as="alternateBounds"/>
                    </mxGeometry>
                </mxCell>
                <mxCell id="727" value="Id_matiere" style="text;align=left;verticalAlign=middle;spacingLeft=4;spacingRight=4;overflow=hidden;points=[[0,0.5],[1,0.5]];portConstraint=eastwest;rotatable=0;fontStyle=5;spacing=3;" parent="726" vertex="1">
                    <mxGeometry y="40" width="141" height="30" as="geometry"/>
                </mxCell>
                <mxCell id="728" value="Nom" style="text;align=left;verticalAlign=middle;spacingLeft=4;spacingRight=4;overflow=hidden;points=[[0,0.5],[1,0.5]];portConstraint=eastwest;rotatable=0;fontStyle=1;spacing=3;" parent="726" vertex="1">
                    <mxGeometry y="70" width="141" height="30" as="geometry"/>
                </mxCell>
                <mxCell id="729" style="edgeStyle=none;rounded=0;html=1;exitX=1;exitY=0.5;exitDx=0;exitDy=0;entryX=0.014;entryY=0.733;entryDx=0;entryDy=0;entryPerimeter=0;endArrow=none;endFill=0;fontStyle=1;spacing=3;" parent="1" source="733" target="680" edge="1">
                    <mxGeometry relative="1" as="geometry"/>
                </mxCell>
                <mxCell id="730" value="1,n" style="edgeLabel;html=1;align=center;verticalAlign=middle;resizable=0;points=[];fontStyle=1;spacing=3;" parent="729" vertex="1" connectable="0">
                    <mxGeometry x="-0.4525" y="-1" relative="1" as="geometry">
                        <mxPoint as="offset"/>
                    </mxGeometry>
                </mxCell>
                <mxCell id="731" style="edgeStyle=none;rounded=0;html=1;exitX=0;exitY=0.5;exitDx=0;exitDy=0;entryX=1.021;entryY=0.8;entryDx=0;entryDy=0;entryPerimeter=0;endArrow=none;endFill=0;fontStyle=1;spacing=3;" parent="1" source="733" target="727" edge="1">
                    <mxGeometry relative="1" as="geometry"/>
                </mxCell>
                <mxCell id="732" value="1,n" style="edgeLabel;html=1;align=center;verticalAlign=middle;resizable=0;points=[];fontStyle=1;spacing=3;" parent="731" vertex="1" connectable="0">
                    <mxGeometry x="-0.3692" y="1" relative="1" as="geometry">
                        <mxPoint as="offset"/>
                    </mxGeometry>
                </mxCell>
                <mxCell id="733" value="dispensée par" style="swimlane;rounded=1;fontStyle=1;spacing=3;" parent="1" vertex="1">
                    <mxGeometry x="250" y="-1605" width="121" height="60" as="geometry"/>
                </mxCell>
                <mxCell id="734" value="Inspecteur" style="swimlane;fontStyle=1;childLayout=stackLayout;horizontal=1;startSize=40;horizontalStack=0;resizeParent=1;resizeParentMax=0;resizeLast=0;collapsible=1;marginBottom=0;spacing=3;" parent="1" vertex="1">
                    <mxGeometry x="30" y="-1900" width="140" height="130" as="geometry"/>
                </mxCell>
                <mxCell id="735" value="Id" style="text;strokeColor=none;fillColor=none;align=left;verticalAlign=middle;spacingLeft=4;spacingRight=4;overflow=hidden;points=[[0,0.5],[1,0.5]];portConstraint=eastwest;rotatable=0;fontStyle=5;spacing=3;" parent="734" vertex="1">
                    <mxGeometry y="40" width="140" height="30" as="geometry"/>
                </mxCell>
                <mxCell id="736" value="Nom" style="text;strokeColor=none;fillColor=none;align=left;verticalAlign=middle;spacingLeft=4;spacingRight=4;overflow=hidden;points=[[0,0.5],[1,0.5]];portConstraint=eastwest;rotatable=0;fontStyle=1;spacing=3;" parent="734" vertex="1">
                    <mxGeometry y="70" width="140" height="30" as="geometry"/>
                </mxCell>
                <mxCell id="737" value="Niveau" style="text;strokeColor=none;fillColor=none;align=left;verticalAlign=middle;spacingLeft=4;spacingRight=4;overflow=hidden;points=[[0,0.5],[1,0.5]];portConstraint=eastwest;rotatable=0;fontStyle=1;spacing=3;" parent="734" vertex="1">
                    <mxGeometry y="100" width="140" height="30" as="geometry"/>
                </mxCell>
                <mxCell id="738" style="edgeStyle=none;rounded=0;html=1;exitX=0.5;exitY=1;exitDx=0;exitDy=0;entryX=0.5;entryY=0;entryDx=0;entryDy=0;endArrow=none;endFill=0;fontStyle=1;spacing=3;" parent="1" source="740" target="726" edge="1">
                    <mxGeometry relative="1" as="geometry"/>
                </mxCell>
                <mxCell id="739" style="edgeStyle=none;rounded=0;html=1;exitX=0.5;exitY=0;exitDx=0;exitDy=0;entryX=0.507;entryY=1;entryDx=0;entryDy=0;entryPerimeter=0;endArrow=none;endFill=0;fontStyle=1;spacing=3;" parent="1" source="740" target="737" edge="1">
                    <mxGeometry relative="1" as="geometry"/>
                </mxCell>
                <mxCell id="740" value="Controle" style="swimlane;rounded=1;fontStyle=1;spacing=3;" parent="1" vertex="1">
                    <mxGeometry x="40" y="-1740" width="121" height="60" as="geometry"/>
                </mxCell>
                <mxCell id="741" style="edgeStyle=none;rounded=0;html=1;exitX=0;exitY=0.5;exitDx=0;exitDy=0;entryX=1.014;entryY=0.767;entryDx=0;entryDy=0;entryPerimeter=0;endArrow=none;endFill=0;fontStyle=1;spacing=3;" parent="1" source="743" edge="1">
                    <mxGeometry relative="1" as="geometry">
                        <mxPoint x="-258.03999999999996" y="-1586.99" as="targetPoint"/>
                    </mxGeometry>
                </mxCell>
                <mxCell id="742" style="edgeStyle=none;rounded=0;html=1;exitX=1;exitY=0.5;exitDx=0;exitDy=0;entryX=0;entryY=0.5;entryDx=0;entryDy=0;endArrow=none;endFill=0;fontStyle=1;spacing=3;" parent="1" source="743" target="727" edge="1">
                    <mxGeometry relative="1" as="geometry"/>
                </mxCell>
                <mxCell id="743" value="Dirige" style="swimlane;rounded=1;fontStyle=1;spacing=3;" parent="1" vertex="1">
                    <mxGeometry x="-160" y="-1615" width="121" height="60" as="geometry"/>
                </mxCell>
                <mxCell id="744" style="edgeStyle=elbowEdgeStyle;rounded=0;sketch=0;jumpStyle=sharp;jumpSize=1;html=1;exitX=0.5;exitY=0;exitDx=0;exitDy=0;endArrow=none;endFill=0;strokeColor=default;strokeWidth=1;fontStyle=1;spacing=3;" parent="1" source="748" target="728" edge="1">
                    <mxGeometry relative="1" as="geometry">
                        <mxPoint x="108.94117647058829" y="-1520" as="targetPoint"/>
                    </mxGeometry>
                </mxCell>
                <mxCell id="745" value="1,n" style="edgeLabel;html=1;align=center;verticalAlign=middle;resizable=0;points=[];fontStyle=1;spacing=3;" parent="744" vertex="1" connectable="0">
                    <mxGeometry x="0.3112" relative="1" as="geometry">
                        <mxPoint as="offset"/>
                    </mxGeometry>
                </mxCell>
                <mxCell id="746" style="edgeStyle=elbowEdgeStyle;rounded=0;sketch=0;jumpStyle=sharp;jumpSize=1;html=1;exitX=1;exitY=0.5;exitDx=0;exitDy=0;entryX=0;entryY=0.25;entryDx=0;entryDy=0;endArrow=none;endFill=0;strokeColor=default;strokeWidth=1;fontStyle=1;spacing=3;" parent="1" source="748" target="688" edge="1">
                    <mxGeometry relative="1" as="geometry">
                        <Array as="points">
                            <mxPoint x="380" y="-1380"/>
                        </Array>
                    </mxGeometry>
                </mxCell>
                <mxCell id="747" value="1,n" style="edgeLabel;html=1;align=center;verticalAlign=middle;resizable=0;points=[];fontStyle=1;spacing=3;" parent="746" vertex="1" connectable="0">
                    <mxGeometry x="-0.5632" y="3" relative="1" as="geometry">
                        <mxPoint as="offset"/>
                    </mxGeometry>
                </mxCell>
                <mxCell id="748" value="Distribuée" style="swimlane;rounded=1;fontStyle=1;spacing=3;" parent="1" vertex="1">
                    <mxGeometry x="49" y="-1490" width="121" height="60" as="geometry"/>
                </mxCell>
                <mxCell id="749" value="Animateur_pedagogique" style="swimlane;fontStyle=1;childLayout=stackLayout;horizontal=1;startSize=40;horizontalStack=0;resizeParent=1;resizeParentMax=0;resizeLast=0;collapsible=1;marginBottom=0;spacing=3;" parent="1" vertex="1">
                    <mxGeometry x="-400" y="-1640" width="140" height="130" as="geometry"/>
                </mxCell>
                <mxCell id="750" value="Id" style="text;strokeColor=none;fillColor=none;align=left;verticalAlign=middle;spacingLeft=4;spacingRight=4;overflow=hidden;points=[[0,0.5],[1,0.5]];portConstraint=eastwest;rotatable=0;fontStyle=5;spacing=3;" parent="749" vertex="1">
                    <mxGeometry y="40" width="140" height="30" as="geometry"/>
                </mxCell>
                <mxCell id="751" value="Nom" style="text;strokeColor=none;fillColor=none;align=left;verticalAlign=middle;spacingLeft=4;spacingRight=4;overflow=hidden;points=[[0,0.5],[1,0.5]];portConstraint=eastwest;rotatable=0;fontStyle=1;spacing=3;" parent="749" vertex="1">
                    <mxGeometry y="70" width="140" height="30" as="geometry"/>
                </mxCell>
                <mxCell id="752" value="Niveau" style="text;strokeColor=none;fillColor=none;align=left;verticalAlign=middle;spacingLeft=4;spacingRight=4;overflow=hidden;points=[[0,0.5],[1,0.5]];portConstraint=eastwest;rotatable=0;fontStyle=1;spacing=3;" parent="749" vertex="1">
                    <mxGeometry y="100" width="140" height="30" as="geometry"/>
                </mxCell>
            </root>
        </mxGraphModel>
    </diagram>
</mxfile>